PathFileType	4	(X/Y/Z)	Walk5.trc
DataRate	CameraRate	NumFrames	NumMarkers	Units	OrigDataRate	OrigDataStartFrame	OrigNumFrames
200.000000	200.000000	4	59	mm	200.000000	368	541
Frame#	Times		LFHD		RFHD		CLAV		STRN		LASI		RASI		RACR1		RUA1		RElbow		RFA1		RWRR		RWRU		RCAR		LACR1		LUA1		LElbow		LFA1		LWRR		LWRU		LCAR		RTH3		RTH2		RMFC		RTB1		RTB3		RTB2		RTB4		LTH1		LTH3		LTH2		LMFC		LTB1		LTB2		LTB4		LMT1		RTH4		RToe		RMT1		LTH4		RTH1		RLFC		RElbowM		RMMAL		LMT5		RBHD		LTB3		RCAL		LToe		LLFC		RBack		RPSI		C7		LMMAL		T10		LPSI		LLMAL		LCAL		LBHD		LElbowM
			X1	Y1	Z1	X2	Y2	Z2	X3	Y3	Z3	X4	Y4	Z4	X5	Y5	Z5	X6	Y6	Z6	X7	Y7	Z7	X8	Y8	Z8	X9	Y9	Z9	X10	Y10	Z10	X11	Y11	Z11	X12	Y12	Z12	X13	Y13	Z13	X14	Y14	Z14	X15	Y15	Z15	X16	Y16	Z16	X17	Y17	Z17	X18	Y18	Z18	X19	Y19	Z19	X20	Y20	Z20	X21	Y21	Z21	X22	Y22	Z22	X23	Y23	Z23	X24	Y24	Z24	X25	Y25	Z25	X26	Y26	Z26	X27	Y27	Z27	X28	Y28	Z28	X29	Y29	Z29	X30	Y30	Z30	X31	Y31	Z31	X32	Y32	Z32	X33	Y33	Z33	X34	Y34	Z34	X35	Y35	Z35	X36	Y36	Z36	X37	Y37	Z37	X38	Y38	Z38	X39	Y39	Z39	X40	Y40	Z40	X41	Y41	Z41	X42	Y42	Z42	X43	Y43	Z43	X44	Y44	Z44	X45	Y45	Z45	X46	Y46	Z46	X47	Y47	Z47	X48	Y48	Z48	X49	Y49	Z49	X50	Y50	Z50	X51	Y51	Z51	X52	Y52	Z52	X53	Y53	Z53	X54	Y54	Z54	X55	Y55	Z55	X56	Y56	Z56	X57	Y57	Z57	X58	Y58	Z58	X59	Y59	Z59

368	1.84	554.38	1680.2	105.86	556.28	1677.9	6.8448	567	1415.8	64.084	632.75	1256.6	55.254	499.24	1007.9	-134.74	539.49	993.68	232.11	448.79	1496.5	232.59	418.92	1329.6	348.08	424.06	1181.7	397.94	459.65	1032.8	412.36	491.52	918.82	341.28	478.25	919.82	422.28	513.39	836.35	388.25	448.4	1482.2	-117.23	423.85	1311.1	-209.44	428.51	1148.6	-265.32	468.55	1014.3	-281.54	532.01	895.86	-223.89	492.51	876.75	-285.13	553.11	811.02	-259.21	496.66	615.9	224.73	533.45	714.13	226.79	483.88	507.81	57.586	550.32	382.04	130.42	517.86	213.53	107.98	518.47	293.54	178.74	533.99	297.3	119.24	472.49	776.31	-170.45	508.87	608.45	-171.06	546.08	705.03	-154.22	527.28	512.65	-16.144	504.58	394.33	-110.95	421.51	340.5	-142.36	453.45	330.67	-89.575	329.82	61.536	-54.765	477.78	698.14	239.63	636.55	30.514	107.39	589.61	26.375	75.224	489.57	693.53	-171.77	457.54	780.98	256.04	496.74	499.63	213.49	373.82	1111.2	300.58	461.59	84.284	45.259	271.1	84.648	-121.43	411.32	1591	-6.2879	394.27	268.67	-70.825	368.18	48.878	85.597	367.04	41.804	-99.602	493.12	529.44	-171.9	307.61	1377.1	173.82	265.57	1043.8	102.26	372.62	1495.6	62.96	262.84	185.17	18.893	309.84	1180.7	63.463	269.54	1047.7	16.861	228.35	192.12	-63.911	177.19	196.54	-1.6729	423.9	1601	142.49	371.21	1083.7	-173.99
369	1.845	560.27	1681	105.79	562.17	1678.6	6.7865	572.7	1416.6	64.175	638.47	1257.4	55.375	505.64	1008.8	-134.24	545.14	995.13	232.06	454.34	1497.3	232.69	424.64	1330.5	348.36	430.45	1182.7	398.67	467.46	1034.2	413.08	500.66	920.62	341.99	487.24	921.56	423	523.16	838.34	389.08	454.06	1483	-117.15	428.38	1312	-209.32	431.61	1149.5	-265.22	470.44	1014.9	-281.67	533.11	895.86	-224.3	493.2	877.15	-285.42	553	810.56	-259.66	499.07	615.94	224.75	536.79	713.81	226.83	485.16	507.82	57.531	551.2	381.78	130.44	518.3	213.37	107.99	519.09	293.36	178.76	534.65	297.08	119.23	480.4	777.55	-170.09	518.5	610.05	-170.35	554.75	706.98	-153.67	537.48	514.52	-15.435	517.24	395.97	-110.44	435.32	340.53	-142.08	467.49	331.23	-89.346	350.42	60.107	-55.602	480.98	698.36	239.68	636.6	30.471	107.43	589.62	26.37	75.234	498.3	694.93	-171.18	461.56	781.37	256.2	498.12	499.59	213.48	381.16	1111.8	300.98	461.68	84.274	45.227	291.12	81.887	-122.25	417.15	1591.8	-6.2798	409.57	267.93	-70.816	368.21	48.945	85.581	388.24	41.561	-100.33	503.53	530.92	-170.99	313.28	1377.8	173.87	271.23	1044.7	102.21	378.4	1496.4	63.065	279.77	181.35	18.516	315.71	1181.4	63.611	275.49	1048.4	16.715	245.29	187.71	-64.298	193.74	190.52	-2.1685	429.76	1601.9	142.53	374.12	1085.1	-173.67
370	1.85	566.16	1681.7	105.7	568.06	1679.2	6.7023	578.4	1417.4	64.251	644.18	1258.2	55.501	512.07	1009.6	-133.68	550.78	996.5	232	459.89	1498.1	232.79	430.35	1331.3	348.63	436.83	1183.7	399.42	475.27	1035.7	413.78	509.78	922.39	342.67	496.23	923.25	423.68	532.95	840.32	389.88	459.74	1483.7	-117.07	432.92	1312.9	-209.23	434.69	1150.4	-265.16	472.33	1015.5	-281.82	534.24	895.86	-224.71	493.92	877.55	-285.72	552.94	810.15	-260.1	501.5	615.97	224.75	540.15	713.46	226.84	486.48	507.82	57.467	552.11	381.52	130.44	518.75	213.19	107.98	519.73	293.17	178.75	535.33	296.86	119.21	488.24	778.74	-169.76	528.04	611.6	-169.61	563.34	708.87	-153.1	547.56	516.33	-14.68	529.85	397.59	-109.9	449.14	340.52	-141.8	481.53	331.76	-89.103	371.16	58.705	-56.437	484.19	698.56	239.71	636.64	30.428	107.47	589.63	26.364	75.243	506.96	696.27	-170.59	465.6	781.72	256.33	499.53	499.54	213.46	388.48	1112.3	301.39	461.78	84.262	45.189	311.31	79.11	-123.07	422.98	1592.4	-6.2967	424.94	267.16	-70.812	368.25	49.008	85.563	409.54	41.366	-101.05	513.85	532.35	-170.05	318.94	1378.4	173.92	276.88	1045.6	102.16	384.2	1497.1	63.167	296.9	177.46	18.12	321.58	1182.1	63.724	281.42	1049.1	16.554	262.42	183.21	-64.702	210.55	184.38	-2.6874	435.62	1602.8	142.55	377	1086.4	-173.39
371	1.855	572.04	1682.4	105.59	573.95	1679.7	6.5953	584.1	1418	64.315	649.88	1258.9	55.632	518.54	1010.3	-133.07	556.41	997.8	231.92	465.44	1498.8	232.87	436.03	1332	348.9	443.2	1184.6	400.16	483.08	1037	414.46	518.88	924.11	343.32	505.23	924.91	424.35	542.74	842.26	390.64	465.42	1484.4	-117.01	437.47	1313.7	-209.16	437.77	1151.2	-265.13	474.23	1016	-281.98	535.38	895.86	-225.13	494.67	877.93	-286.01	552.93	809.76	-260.54	503.95	615.98	224.74	543.51	713.1	226.83	487.84	507.79	57.4	553.04	381.24	130.42	519.21	213.01	107.95	520.39	292.98	178.74	536.03	296.63	119.18	496.02	779.86	-169.44	537.49	613.1	-168.85	571.84	710.7	-152.5	557.52	518.08	-13.882	542.41	399.18	-109.33	462.97	340.48	-141.5	495.56	332.27	-88.847	392.01	57.345	-57.275	487.44	698.72	239.73	636.69	30.384	107.51	589.64	26.356	75.252	515.56	697.55	-169.99	469.66	782.04	256.45	500.98	499.48	213.43	395.78	1112.8	301.81	461.88	84.247	45.146	331.64	76.342	-123.89	428.81	1593.1	-6.3378	440.37	266.36	-70.814	368.28	49.069	85.543	430.91	41.23	-101.79	524.07	533.73	-169.08	324.61	1379	173.96	282.53	1046.4	102.08	390	1497.8	63.264	314.21	173.51	17.711	327.44	1182.7	63.799	287.33	1049.7	16.377	279.75	178.65	-65.116	227.61	178.17	-3.2205	441.48	1603.5	142.54	379.86	1087.7	-173.15
